<?xml version="1.0" encoding="UTF-8"?>
<svg version="1.1" xmlns="http://www.w3.org/2000/svg" width="691" height="319">
<path d="M0 0 C9.78251632 8.80426468 13.41009614 20.43535809 14.12890625 33.30859375 C14.45460087 46.87920305 11.55947326 59.93181863 2 70 C-5.18187509 76.00932406 -12.38612141 78.53058387 -21.7109375 78.2421875 C-30.27840886 77.33573149 -34.23910545 73.91578273 -41 68 C-41.33 80.54 -41.66 93.08 -42 106 C-49.92 106 -57.84 106 -66 106 C-66 69.37 -66 32.74 -66 -5 C-58.41 -5 -50.82 -5 -43 -5 C-42.67 -1.37 -42.34 2.26 -42 6 C-40.453125 4.1128125 -40.453125 4.1128125 -38.875 2.1875 C-29.05496397 -8.99588107 -11.68013002 -8.30769811 0 0 Z M-39.25 19.75 C-43.75275833 28.11226548 -44.21801165 37.14732524 -41.8125 46.25 C-40.12215488 51.32103536 -37.82893955 55.30146487 -33.11328125 58.1328125 C-29.42988517 59.64429851 -25.90628525 59.5172085 -22 59 C-16.79273452 56.79692614 -14.21477719 53.25977216 -11.921875 48.2421875 C-9.46322283 39.59523282 -9.36962333 29.26913514 -13.25 21.0625 C-15.66654111 16.83355305 -18.37058069 14.54313977 -23 13 C-30.46851078 12.38782699 -34.32917813 13.73566216 -39.25 19.75 Z " fill="#000000" transform="translate(354,75)"/>
<path d="M0 0 C7.92 0 15.84 0 24 0 C24.33 11.88 24.66 23.76 25 36 C27.475 33.03 27.475 33.03 30 30 C36.56072383 24.74854343 45.47228359 24.59720516 53.51953125 25.18359375 C60.23340241 26.32412878 66.23140982 29.67903902 70.60546875 34.92578125 C76.25941659 43.46473473 76.27746483 51.60649211 76.1953125 61.58984375 C76.1924826 62.88950577 76.18965271 64.18916779 76.18673706 65.5282135 C76.17914655 68.96249255 76.15953823 72.39659907 76.1373291 75.83081055 C76.11677121 79.34356351 76.1077142 82.85634469 76.09765625 86.36914062 C76.07628734 93.24617123 76.04114328 100.12305954 76 107 C68.08 107 60.16 107 52 107 C51.95101562 103.15988281 51.90203125 99.31976563 51.8515625 95.36328125 C51.79754977 91.64327097 51.74024332 87.92332499 51.68261719 84.20336914 C51.64433901 81.61845695 51.60948414 79.03349171 51.578125 76.44848633 C51.53244994 72.73239177 51.4744583 69.01666211 51.4140625 65.30078125 C51.40251129 64.14540359 51.39096008 62.99002594 51.37905884 61.79963684 C51.35918915 60.71889389 51.33931946 59.63815094 51.31884766 58.5246582 C51.30552399 57.57645706 51.29220032 56.62825592 51.2784729 55.65132141 C50.97476176 52.75970848 50.28564878 50.60223962 49 48 C44.63555966 45.13583603 39.02942778 45.36326155 34 46 C29.4664244 48.06071618 27.46952636 50.20817698 25.61117554 54.80935669 C24.35272693 59.3200281 24.51639102 63.96880454 24.48828125 68.62109375 C24.47033005 69.72099136 24.45237885 70.82088898 24.43388367 71.95411682 C24.37993511 75.44853952 24.34593379 78.94282681 24.3125 82.4375 C24.27931337 84.8144719 24.24482248 87.19142597 24.20898438 89.56835938 C24.1217752 95.3789241 24.06157195 101.18888139 24 107 C16.08 107 8.16 107 0 107 C0 71.69 0 36.38 0 0 Z " fill="#000000" transform="translate(103,166)"/>
<path d="M0 0 C4.74930097 4.64136231 7.57766433 9.73381665 7.87025452 16.4463501 C7.86803391 17.50336121 7.86581329 18.56037231 7.86352539 19.64941406 C7.86341209 21.45082855 7.86341209 21.45082855 7.86329651 23.28863525 C7.85813522 24.58041687 7.85297394 25.87219849 7.84765625 27.203125 C7.84579017 28.54262235 7.84436716 29.88212038 7.84336853 31.22161865 C7.83955835 34.73972472 7.82974091 38.25778921 7.81866455 41.77587891 C7.80841817 45.36880939 7.803864 48.96174661 7.79882812 52.5546875 C7.78811725 59.59897692 7.77053262 66.64323137 7.75 73.6875 C0.16 73.6875 -7.43 73.6875 -15.25 73.6875 C-15.745 70.2225 -15.745 70.2225 -16.25 66.6875 C-16.6625 67.08582031 -17.075 67.48414063 -17.5 67.89453125 C-24.84028567 74.62858797 -31.04599731 76.25264459 -41.00390625 75.96484375 C-49.92238471 75.20285582 -56.28847836 72.49249832 -62.25 65.6875 C-66.61354736 59.14217895 -65.9601548 51.30102005 -65.25 43.6875 C-63.82212984 37.50006263 -60.22704949 34.41767032 -55.0546875 31.01171875 C-47.50249444 27.44598972 -39.602971 26.12107958 -31.375 25.125 C-29.54344707 24.90117195 -27.71266224 24.67094382 -25.8828125 24.43359375 C-25.08762207 24.33747803 -24.29243164 24.2413623 -23.47314453 24.14233398 C-21.12680183 23.66229484 -19.33426027 22.84922372 -17.25 21.6875 C-16.86662661 17.11621174 -16.86662661 17.11621174 -18.25 12.875 C-22.95306232 10.08255675 -26.82494058 9.38379881 -32.0625 10.5 C-33.114375 10.891875 -34.16625 11.28375 -35.25 11.6875 C-36.24 12.0175 -37.23 12.3475 -38.25 12.6875 C-38.559375 13.5125 -38.86875 14.3375 -39.1875 15.1875 C-39.7134375 16.425 -39.7134375 16.425 -40.25 17.6875 C-43.14233289 18.77861253 -45.54290135 18.71621912 -48.578125 18.34765625 C-49.37734375 18.25419922 -50.1765625 18.16074219 -51 18.06445312 C-51.825 17.96068359 -52.65 17.85691406 -53.5 17.75 C-54.34046875 17.65009766 -55.1809375 17.55019531 -56.046875 17.44726562 C-58.11536277 17.20045742 -60.18279572 16.94483716 -62.25 16.6875 C-61.41291665 8.51362727 -58.16876058 4.60626058 -52.5 -1.0625 C-36.90587075 -11.85843564 -15.20017967 -10.81551246 0 0 Z M-26.5 39.5 C-27.35980469 39.66564453 -28.21960938 39.83128906 -29.10546875 40.00195312 C-33.63470968 40.92664407 -37.54691076 41.74981306 -41.25 44.6875 C-42.92502238 48.45630036 -43.67893612 50.50792567 -42.25 54.4375 C-39.69912187 57.30723789 -37.91254852 58.46665049 -34.25 59.6875 C-28.25728915 59.95599063 -23.86806813 58.64584411 -19.25 54.6875 C-16.39727191 50.80967813 -15.90506759 48.15044991 -16.0625 43.375 C-16.08957031 42.30636719 -16.11664063 41.23773438 -16.14453125 40.13671875 C-16.19673828 38.92435547 -16.19673828 38.92435547 -16.25 37.6875 C-19.63973275 37.6875 -23.19097357 38.82990997 -26.5 39.5 Z " fill="#000000" transform="translate(257.25,199.3125)"/>
<path d="M0 0 C7.5431122 6.97438548 11.47067794 14.93196311 13 25 C13 29.95 13 34.9 13 40 C-5.15 40 -23.3 40 -42 40 C-39.79855921 49.31332751 -39.79855921 49.31332751 -34 55 C-28.49098982 57.82953052 -23.99067759 58.49507377 -18.01171875 56.8046875 C-13.79469871 55.11787948 -11.47814113 52.71721169 -9 49 C-6.93701172 48.7512207 -6.93701172 48.7512207 -4.4296875 48.92578125 C-3.53378906 48.98056641 -2.63789063 49.03535156 -1.71484375 49.09179688 C-0.30912109 49.20104492 -0.30912109 49.20104492 1.125 49.3125 C2.06988281 49.37373047 3.01476562 49.43496094 3.98828125 49.49804688 C6.32681186 49.65158676 8.66342389 49.81946076 11 50 C11.76506271 52.74267763 12.17234804 54.4669454 11.28515625 57.2109375 C5.98372555 66.59430046 -0.67492095 71.86710489 -11 75 C-22.10522769 77.82780671 -35.53968401 77.03022431 -45.6875 71.6875 C-54.96269925 66.11593934 -60.52408434 59.27342294 -63.875 48.9375 C-67.00876271 35.78688861 -65.86362012 21.70830355 -59.375 9.8125 C-52.74601155 -0.43230033 -44.51634609 -4.95607694 -32.875 -7.75 C-21.23133052 -8.762493 -9.6259998 -7.1454537 0 0 Z M-39.9375 17.5 C-41.24361685 20.338187 -41.24361685 20.338187 -42 25 C-31.44 25 -20.88 25 -10 25 C-11.09806366 17.15776875 -11.09806366 17.15776875 -16 12 C-24.4555662 6.83270955 -34.18830324 10.0816816 -39.9375 17.5 Z " fill="#000000" transform="translate(429,199)"/>
<path d="M0 0 C6.81184186 6.33019647 10.71073155 13.34836717 11.12025452 22.76521301 C11.11803391 23.76670883 11.11581329 24.76820465 11.11352539 25.80004883 C11.11341209 27.51125664 11.11341209 27.51125664 11.11329651 29.2570343 C11.10813522 30.47803329 11.10297394 31.69903229 11.09765625 32.95703125 C11.0962413 34.21513107 11.09482635 35.4732309 11.09336853 36.76945496 C11.08872573 40.10178529 11.07975228 43.43404632 11.06866455 46.76635742 C11.05840503 50.17170617 11.05386121 53.5770621 11.04882812 56.98242188 C11.03780829 63.65496945 11.02054835 70.32747524 11 77 C3.08 77 -4.84 77 -13 77 C-13.02578125 73.24367188 -13.0515625 69.48734375 -13.078125 65.6171875 C-13.11655353 61.97323153 -13.16171142 58.32941666 -13.20751953 54.68554688 C-13.23571932 52.15599317 -13.25693873 49.62635151 -13.27099609 47.09667969 C-13.29243829 43.45722454 -13.3390986 39.81882585 -13.390625 36.1796875 C-13.39185364 35.05134491 -13.39308228 33.92300232 -13.39434814 32.76046753 C-13.50950582 26.56624344 -13.79284926 22.68687034 -18 18 C-22.010773 15.25745562 -26.30988548 15.35673777 -31 16 C-35.4985133 18.08264505 -37.54254637 20.22232224 -39.39102173 24.80935669 C-40.64521566 29.32099803 -40.48360888 33.96878797 -40.51171875 38.62109375 C-40.52966995 39.72099136 -40.54762115 40.82088898 -40.56611633 41.95411682 C-40.62006489 45.44853952 -40.65406621 48.94282681 -40.6875 52.4375 C-40.72068663 54.8144719 -40.75517752 57.19142597 -40.79101562 59.56835938 C-40.8782248 65.3789241 -40.93842805 71.18888139 -41 77 C-48.92 77 -56.84 77 -65 77 C-65.02255116 66.58656689 -65.04091517 56.17314987 -65.05181217 45.75969791 C-65.05704097 40.92483173 -65.06413854 36.08998306 -65.07543945 31.25512695 C-65.08626847 26.5932288 -65.09227686 21.93134754 -65.09487724 17.26943779 C-65.09673147 15.48675712 -65.10035203 13.70407741 -65.10573006 11.92140388 C-65.11294069 9.4333404 -65.11399093 6.94534757 -65.11352539 4.45727539 C-65.11712067 3.71281158 -65.12071594 2.96834778 -65.12442017 2.20132446 C-65.11405216 -2.88594784 -65.11405216 -2.88594784 -64 -4 C-62.36527118 -4.08700342 -60.72685945 -4.10701063 -59.08984375 -4.09765625 C-58.10048828 -4.09443359 -57.11113281 -4.09121094 -56.09179688 -4.08789062 C-55.05087891 -4.07951172 -54.00996094 -4.07113281 -52.9375 -4.0625 C-51.37032227 -4.05573242 -51.37032227 -4.05573242 -49.77148438 -4.04882812 C-47.18096546 -4.03699927 -44.59047578 -4.01906319 -42 -4 C-41.67 -0.37 -41.34 3.26 -41 7 C-40.175 5.9275 -39.35 4.855 -38.5 3.75 C-29.48999859 -6.74750164 -11.05432825 -8.45473897 0 0 Z " fill="#000000" transform="translate(261,74)"/>
<path d="M0 0 C6.55210703 5.37435225 9.54359574 12.04531701 10.68551636 20.32400513 C11.1362023 25.21690816 11.01040848 30.13784543 10.98828125 35.046875 C10.9868663 36.23555679 10.98545135 37.42423859 10.98399353 38.64894104 C10.97841614 42.42874719 10.96586775 46.20849314 10.953125 49.98828125 C10.94810708 52.55794185 10.94354468 55.12760338 10.93945312 57.69726562 C10.92930694 63.98181244 10.90972698 70.2662298 10.890625 76.55078125 C2.970625 76.55078125 -4.949375 76.55078125 -13.109375 76.55078125 C-13.14675781 72.95042969 -13.18414062 69.35007812 -13.22265625 65.640625 C-13.2689064 62.14227322 -13.32012753 58.64402695 -13.37182617 55.14575195 C-13.40501966 52.72003627 -13.43306884 50.29424439 -13.45581055 47.8684082 C-13.48945831 44.37548441 -13.54178131 40.8832554 -13.59765625 37.390625 C-13.60404617 36.31119125 -13.6104361 35.23175751 -13.61701965 34.11961365 C-13.73221671 28.18038627 -14.20492562 23.7780814 -17.109375 18.55078125 C-20.71854479 15.26006761 -24.26897381 15.08263095 -28.96484375 15.26953125 C-33.29651375 15.83761912 -35.38341497 17.73107813 -38.20800781 20.92041016 C-41.25762332 25.64264189 -40.71271458 31.07642817 -40.71875 36.51171875 C-40.73528625 37.6574234 -40.75182251 38.80312805 -40.76885986 39.98355103 C-40.81731648 43.63101577 -40.83870668 47.27806361 -40.859375 50.92578125 C-40.88753647 53.40366678 -40.91746413 55.88153291 -40.94921875 58.359375 C-41.02638946 64.42336847 -41.0669346 70.48604791 -41.109375 76.55078125 C-49.029375 76.55078125 -56.949375 76.55078125 -65.109375 76.55078125 C-65.109375 49.82078125 -65.109375 23.09078125 -65.109375 -4.44921875 C-57.849375 -4.44921875 -50.589375 -4.44921875 -43.109375 -4.44921875 C-41.52664899 -2.86649274 -41.76201753 -1.06887872 -41.546875 1.11328125 C-41.42119141 2.35271484 -41.42119141 2.35271484 -41.29296875 3.6171875 C-41.23238281 4.25527344 -41.17179687 4.89335937 -41.109375 5.55078125 C-40.68527344 5.08027344 -40.26117188 4.60976562 -39.82421875 4.125 C-29.10105596 -7.25804973 -13.01897923 -8.68786212 0 0 Z " fill="#000000" transform="translate(520.109375,196.44921875)"/>
<path d="M0 0 C7.92 0 15.84 0 24 0 C24.03738281 3.75632812 24.07476562 7.51265625 24.11328125 11.3828125 C24.15951172 15.02675146 24.21074003 18.67058831 24.26245117 22.31445312 C24.29567514 24.84401225 24.32371489 27.37364505 24.34643555 29.90332031 C24.38002704 33.54263667 24.43234754 37.18127934 24.48828125 40.8203125 C24.49467117 41.94865509 24.5010611 43.07699768 24.50764465 44.23953247 C24.61223622 49.8439484 24.7016543 54.23084375 28 59 C31.50501331 61.58703363 34.24011979 62.23666001 38.5 62 C43.3996927 61.21505766 45.73046425 59.7480044 49 56 C51.0991155 49.56259198 51.33694385 43.45274809 51.4140625 36.71875 C51.43342865 35.66465942 51.4527948 34.61056885 51.4727478 33.52453613 C51.53216164 30.18310443 51.57877562 26.84163756 51.625 23.5 C51.66321494 21.22394395 51.70226869 18.94790181 51.7421875 16.671875 C51.83939828 11.1146589 51.91927067 5.55757733 52 0 C59.59 0 67.18 0 75 0 C75 26.73 75 53.46 75 81 C67.41 81 59.82 81 52 81 C51.505 76.545 51.505 76.545 51 72 C50.40832031 72.55429688 49.81664062 73.10859375 49.20703125 73.6796875 C48.41683594 74.40414062 47.62664062 75.12859375 46.8125 75.875 C45.64654297 76.95394531 45.64654297 76.95394531 44.45703125 78.0546875 C39.44249537 82.02486058 34.87126083 82.33980009 28.625 82.3125 C27.53058594 82.33666992 27.53058594 82.33666992 26.4140625 82.36132812 C18.35261396 82.36852585 12.7281218 79.45673157 6.796875 74.03125 C1.34502535 67.86828952 -0.13097303 60.11662043 -0.11352539 52.1081543 C-0.11344986 50.94732834 -0.11337433 49.78650238 -0.11329651 48.59049988 C-0.10813522 47.34762711 -0.10297394 46.10475433 -0.09765625 44.82421875 C-0.0962413 43.54392288 -0.09482635 42.26362701 -0.09336853 40.9445343 C-0.08956397 37.5530296 -0.07975143 34.16156823 -0.06866455 30.77008057 C-0.05840597 27.30440863 -0.05386141 23.83872964 -0.04882812 20.37304688 C-0.03780755 13.5820101 -0.02054722 6.79101437 0 0 Z " fill="#000000" transform="translate(381,70)"/>
<path d="M0 0 C3.86935194 0.59138567 6.71555664 1.74230778 10.11328125 3.66796875 C11.10166992 4.22436035 12.09005859 4.78075195 13.10839844 5.35400391 C14.16575195 5.95905762 15.22310547 6.56411133 16.3125 7.1875 C17.41754883 7.81317871 18.52259766 8.43885742 19.66113281 9.08349609 C29.20757258 14.50508174 38.68951975 20.03717078 48.16015625 25.58984375 C54.84881687 29.50622319 61.57807862 33.35027613 68.31542969 37.18212891 C72.23650802 39.4134651 76.14627385 41.6532299 80 44 C79.67 44.99 79.34 45.98 79 47 C76.31616211 48.16674805 76.31616211 48.16674805 72.77734375 49.26171875 C72.15726944 49.45723831 71.53719513 49.65275787 70.89833069 49.85420227 C68.91475594 50.47677228 66.92642285 51.08225909 64.9375 51.6875 C63.59275164 52.10630831 62.24834536 52.52621668 60.90429688 52.94726562 C57.60607877 53.97574224 54.30475064 54.99275067 51 56 C54.43024269 62.46406233 57.96597294 68.72793873 62.125 74.75 C65.31123476 79.39618133 68.25962691 84.0749055 71 89 C67.92393608 91.57992458 64.73038907 93.95693203 61.4375 96.25 C60.32181641 97.03117187 60.32181641 97.03117187 59.18359375 97.828125 C57 99 57 99 53 99 C51.23242188 96.89208984 51.23242188 96.89208984 49.46875 93.9609375 C48.50001953 92.37732422 48.50001953 92.37732422 47.51171875 90.76171875 C46.84785156 89.64410156 46.18398437 88.52648437 45.5 87.375 C44.17761471 85.19499008 42.85471326 83.01529316 41.53125 80.8359375 C40.94923828 79.86188965 40.36722656 78.8878418 39.76757812 77.88427734 C37.91803106 74.86624572 35.98049539 71.93324194 34 69 C31.07014255 70.30146113 29.21381267 71.59204774 27.16015625 74.046875 C26.65419922 74.645 26.14824219 75.243125 25.62695312 75.859375 C25.11068359 76.48328125 24.59441406 77.1071875 24.0625 77.75 C23.55009766 78.3584375 23.03769531 78.966875 22.50976562 79.59375 C20.99941788 81.39004668 19.49861667 83.1939111 18 85 C17.04055897 86.1512037 16.08093853 87.30225792 15.12109375 88.453125 C14.07115234 89.71382812 14.07115234 89.71382812 13 91 C12.01 90.67 11.02 90.34 10 90 C8.69123494 79.29963578 7.38699506 68.59873057 6.08848572 57.89711666 C5.48535734 52.92763876 4.88068792 47.95835861 4.27246094 42.98950195 C3.68524977 38.19185733 3.10213338 33.39373096 2.52182007 28.59524727 C2.30000748 26.76710935 2.07673464 24.93914799 1.85195923 23.11137199 C1.53672948 20.54597678 1.22675686 17.97999579 0.91796875 15.41381836 C0.82446136 14.66287399 0.73095398 13.91192963 0.63461304 13.13822937 C0.10996895 8.72368377 -0.08576497 4.44593279 0 0 Z " fill="#1C1C1A" transform="translate(57,51)"/>
<path d="M0 0 C14.19 0 28.38 0 43 0 C43 43.89 43 87.78 43 133 C28.81 133 14.62 133 0 133 C0 127.39 0 121.78 0 116 C6.6 116 13.2 116 20 116 C20 83.66 20 51.32 20 18 C13.4 18 6.8 18 0 18 C0 12.06 0 6.12 0 0 Z " fill="#000000" transform="translate(541,163)"/>
<path d="M0 0 C14.19 0 28.38 0 43 0 C43 5.61 43 11.22 43 17 C36.4 17 29.8 17 23 17 C23 49.34 23 81.68 23 115 C29.27 115 35.54 115 42 115 C43.82116003 116.82116003 43.1323508 119.30671764 43.13671875 121.7265625 C43.13285156 122.47679687 43.12898438 123.22703125 43.125 124 C43.13080078 125.12535156 43.13080078 125.12535156 43.13671875 126.2734375 C43.12661053 131.87338947 43.12661053 131.87338947 42 133 C28.14 133 14.28 133 0 133 C0 89.11 0 45.22 0 0 Z " fill="#000000" transform="translate(50,164)"/>
<path d="M0 0 C7.92 0 15.84 0 24 0 C27.3757583 7.87676938 27.3757583 7.87676938 28.53393555 11.87792969 C28.92400032 13.21401276 28.92400032 13.21401276 29.32194519 14.5770874 C29.59082047 15.51586731 29.85969574 16.45464722 30.13671875 17.421875 C30.42102249 18.40367737 30.70532623 19.38547974 30.99824524 20.39703369 C31.59453717 22.46050614 32.18858998 24.52462683 32.78051758 26.58935547 C33.68906898 29.75546757 34.6067357 32.9188378 35.52539062 36.08203125 C36.10471137 38.09098884 36.68350596 40.10009824 37.26171875 42.109375 C37.53666672 43.05625183 37.81161469 44.00312866 38.09489441 44.97869873 C38.34548111 45.85681213 38.59606781 46.73492554 38.85424805 47.63964844 C39.07614304 48.41129333 39.29803802 49.18293823 39.5266571 49.97796631 C40 52 40 52 40 55 C40.66 55 41.32 55 42 55 C42.09982178 54.07566162 42.19964355 53.15132324 42.30249023 52.19897461 C43.05955512 46.93249718 44.64847935 41.90674578 46.16015625 36.81640625 C46.62415077 35.23314796 46.62415077 35.23314796 47.09751892 33.61790466 C48.0813265 30.26475547 49.07181095 26.91362175 50.0625 23.5625 C50.7328643 21.28203105 51.40279102 19.00143342 52.07226562 16.72070312 C53.7089664 11.14537422 55.35469029 5.57282321 57 0 C65.25 0 73.5 0 82 0 C80.76866596 5.54100318 79.652834 10.40397953 77.81689453 15.66210938 C77.17580246 17.50947693 77.17580246 17.50947693 76.52175903 19.39416504 C76.05899742 20.7107709 75.59600966 22.0272973 75.1328125 23.34375 C74.65167327 24.7216849 74.17087513 26.09973895 73.69039917 27.47790527 C72.68663889 30.3534367 71.67937095 33.22770665 70.66943359 36.10107422 C69.38356662 39.76012214 68.10563518 43.42188045 66.83023262 47.0845871 C65.83960658 49.92710642 64.84519575 52.76829036 63.84963608 55.60908508 C63.3773974 56.95774393 62.90619276 58.30676537 62.43610001 59.65617371 C61.77512108 61.55139355 61.10858887 63.44467377 60.44189453 65.33789062 C60.06598175 66.40994751 59.69006897 67.48200439 59.30276489 68.58654785 C57.69836493 72.79033208 55.82743812 76.88826423 54 81 C45.09 81 36.18 81 27 81 C23.39648438 70.58984375 19.79296875 60.1796875 16.18945312 49.76953125 C15.7981723 48.63940613 15.40689148 47.50928101 15.00375366 46.34490967 C14.21085277 44.05381799 13.41855738 41.76251668 12.62686157 39.4710083 C10.5634864 33.50130659 8.48843172 27.53604686 6.39404297 21.57714844 C5.97597885 20.38294281 5.55791473 19.18873718 5.12718201 17.95834351 C4.32648897 15.67204275 3.52216561 13.38700929 2.71376038 11.10342407 C2.35696701 10.08235565 2.00017365 9.06128723 1.63256836 8.00927734 C1.31638046 7.11155609 1.00019257 6.21383484 0.67442322 5.28890991 C0 3 0 3 0 0 Z " fill="#000000" transform="translate(275,192)"/>
<path d="M0 0 C7.92 0 15.84 0 24 0 C24 6.27 24 12.54 24 19 C27.4340625 18.9690625 27.4340625 18.9690625 30.9375 18.9375 C33.29166332 18.91629132 35.64686445 18.92728259 38 19 C39 20 39 20 39.09765625 23.81640625 C39.09098089 25.39846682 39.07901875 26.98051159 39.0625 28.5625 C39.05798828 29.36880859 39.05347656 30.17511719 39.04882812 31.00585938 C39.03700518 33.00393756 39.01906914 35.00197783 39 37 C34.05 37 29.1 37 24 37 C24.33 51.19 24.66 65.38 25 80 C28.61136212 81.80568106 29.544531 82.24851563 33.25 82.125 C34.4875 82.08375 35.725 82.0425 37 82 C37.50690584 84.06081361 38.00524619 86.12373526 38.5 88.1875 C38.7784375 89.33605469 39.056875 90.48460937 39.34375 91.66796875 C39.91495385 94.56818829 40.13283779 97.06096385 40 100 C28.83393932 102.39555557 18.44226296 103.28277122 8.1328125 97.59765625 C3.79637787 94.34930137 1.68109789 90.04329368 0 85 C-0.08705429 83.41966808 -0.11767952 81.83589622 -0.11352539 80.25317383 C-0.11344986 79.29240433 -0.11337433 78.33163483 -0.11329651 77.3417511 C-0.10813522 76.30729355 -0.10297394 75.272836 -0.09765625 74.20703125 C-0.0962413 73.14586594 -0.09482635 72.08470062 -0.09336853 70.99137878 C-0.08776606 67.59839065 -0.07521314 64.20546823 -0.0625 60.8125 C-0.05748532 58.51367283 -0.05292236 56.21484462 -0.04882812 53.91601562 C-0.03779583 48.27731838 -0.02052952 42.63867034 0 37 C-3.63 37 -7.26 37 -11 37 C-11 31.06 -11 25.12 -11 19 C-7.37 19 -3.74 19 0 19 C0 12.73 0 6.46 0 0 Z " fill="#000000" transform="translate(478,51)"/>
<path d="M0 0 C7.59 0 15.18 0 23 0 C23 26.73 23 53.46 23 81 C15.08 81 7.16 81 -1 81 C-1.02255116 70.58656689 -1.04091517 60.17314987 -1.05181217 49.75969791 C-1.05704097 44.92483173 -1.06413854 40.08998306 -1.07543945 35.25512695 C-1.08626847 30.5932288 -1.09227686 25.93134754 -1.09487724 21.26943779 C-1.09673147 19.48675712 -1.10035203 17.70407741 -1.10573006 15.92140388 C-1.11294069 13.4333404 -1.11399093 10.94534757 -1.11352539 8.45727539 C-1.11712067 7.71281158 -1.12071594 6.96834778 -1.12442017 6.20132446 C-1.11405216 1.11405216 -1.11405216 1.11405216 0 0 Z " fill="#000000" transform="translate(157,70)"/>
<path d="M0 0 C23.76 0 47.52 0 72 0 C72 5.61 72 11.22 72 17 C48.24 17 24.48 17 0 17 C0 11.39 0 5.78 0 0 Z " fill="#000000" transform="translate(598,273)"/>
<path d="M0 0 C3.1640948 1.68381653 5.37264732 3.74529465 7 7 C7.39431433 11.73177192 7.45299639 14.09400722 5.3125 18.375 C1.75005532 22.41885613 -0.63273146 22.86978395 -5.9375 23.375 C-10.20980676 23.27000947 -12.7066431 21.74446409 -16 19 C-18.84431249 14.73353126 -18.97658255 10.99917257 -18 6 C-14.04790466 -0.66098189 -7.10756649 -1.46426558 0 0 Z " fill="#000000" transform="translate(174,38)"/>
<path d="M0 0 C3.88529692 0.58720619 6.69534474 1.74882055 10.08203125 3.72265625 C11.01337891 4.26083984 11.94472656 4.79902344 12.90429688 5.35351562 C14.34385742 6.19946289 14.34385742 6.19946289 15.8125 7.0625 C16.79154297 7.63033203 17.77058594 8.19816406 18.77929688 8.78320312 C21.18993348 10.18254827 23.5965851 11.58829929 26 13 C25.34 13.66 24.68 14.32 24 15 C23.030625 14.319375 22.06125 13.63875 21.0625 12.9375 C16.64353206 10.39569527 12.83091218 10.73199717 8 12 C6.6588666 12.65083286 5.32431773 13.31559897 4 14 C4.08302368 14.9132605 4.08302368 14.9132605 4.16772461 15.8449707 C5.46484375 30.11328125 5.46484375 30.11328125 5.72998047 33.04931641 C5.91182054 35.0364042 6.09843818 37.02305991 6.28955078 39.00927734 C6.38091309 39.96914551 6.47227539 40.92901367 6.56640625 41.91796875 C6.6912439 43.20417114 6.6912439 43.20417114 6.81860352 44.51635742 C7.00149238 47.02043337 7.03116522 49.49021713 7 52 C5.07882095 49.11823143 4.69619075 48.16890869 4.31396484 44.91503906 C4.21401215 44.09698792 4.11405945 43.27893677 4.01107788 42.43609619 C3.91203156 41.5548407 3.81298523 40.67358521 3.7109375 39.765625 C3.54871201 38.39854401 3.54871201 38.39854401 3.38320923 37.00384521 C3.15593106 35.07430082 2.93259253 33.14428891 2.71289062 31.21386719 C2.37776191 28.27422655 2.02978865 25.33632852 1.6796875 22.3984375 C1.46017188 20.52092269 1.24139801 18.64332098 1.0234375 16.765625 C0.92034271 15.89246643 0.81724792 15.01930786 0.71102905 14.11968994 C0.1763289 9.3769071 -0.10564782 4.77270094 0 0 Z " fill="#1C1C1B" transform="translate(57,51)"/>
<path d="M0 0 C0.99 0.495 0.99 0.495 2 1 C1.95875 1.680625 1.9175 2.36125 1.875 3.0625 C1.87455578 6.05319262 1.87455578 6.05319262 2.94140625 8.98046875 C4.41858277 13.9770707 4.67458252 19.07551814 5.0625 24.25 C5.21984474 26.21355829 5.37739628 28.17710003 5.53515625 30.140625 C5.61008301 31.10677734 5.68500977 32.07292969 5.76220703 33.06835938 C6.0721192 36.8891246 6.43868047 40.70373014 6.81420898 44.51855469 C7.00167259 47.02233934 7.03172319 49.4902187 7 52 C5.07882095 49.11823143 4.69619075 48.16890869 4.31396484 44.91503906 C4.21401215 44.09698792 4.11405945 43.27893677 4.01107788 42.43609619 C3.91203156 41.5548407 3.81298523 40.67358521 3.7109375 39.765625 C3.54871201 38.39854401 3.54871201 38.39854401 3.38320923 37.00384521 C3.15593106 35.07430082 2.93259253 33.14428891 2.71289062 31.21386719 C2.37776191 28.27422655 2.02978865 25.33632852 1.6796875 22.3984375 C1.46017188 20.52092269 1.24139801 18.64332098 1.0234375 16.765625 C0.92034271 15.89246643 0.81724792 15.01930786 0.71102905 14.11968994 C0.1763289 9.3769071 -0.10564782 4.77270094 0 0 Z " fill="#0C0C0B" transform="translate(57,51)"/>
<path d="M0 0 C3.69790046 1.23263349 3.9354846 2.20052451 5.6875 5.5625 C6.34298828 6.80193359 6.34298828 6.80193359 7.01171875 8.06640625 C7.50091797 9.02353516 7.50091797 9.02353516 8 10 C4.92393608 12.57992458 1.73038907 14.95693203 -1.5625 17.25 C-2.30628906 17.77078125 -3.05007812 18.2915625 -3.81640625 18.828125 C-6 20 -6 20 -10 20 C-11.37207031 18.56298828 -11.37207031 18.56298828 -12.578125 16.5703125 C-13.01640625 15.85746094 -13.4546875 15.14460937 -13.90625 14.41015625 C-14.3496875 13.65605469 -14.793125 12.90195313 -15.25 12.125 C-15.93835938 11.00544922 -15.93835938 11.00544922 -16.640625 9.86328125 C-20 4.31431362 -20 4.31431362 -20 2 C-19.34 2 -18.68 2 -18 2 C-16.01149209 4.92427634 -14.18198434 7.90367867 -12.36523438 10.93554688 C-10.02821695 14.94959101 -10.02821695 14.94959101 -6 17 C-3.44859835 15.67985772 -3.44859835 15.67985772 -0.875 13.75 C0.45917969 12.81414062 0.45917969 12.81414062 1.8203125 11.859375 C4.24997426 10.11094934 4.24997426 10.11094934 5 7 C4.34 7 3.68 7 3 7 C2.01 4.69 1.02 2.38 0 0 Z " fill="#0C0C0B" transform="translate(120,130)"/>
<path d="M0 0 C0.99 0.33 1.98 0.66 3 1 C3.73046875 3.06640625 3.73046875 3.06640625 4.1875 5.5625 C4.34605469 6.38878906 4.50460938 7.21507813 4.66796875 8.06640625 C4.77753906 8.70449219 4.88710937 9.34257813 5 10 C4.34 10 3.68 10 3 10 C3.25561323 12.3431213 3.59270772 14.67843403 4 17 C4.66 17.33 5.32 17.66 6 18 C5.814375 18.763125 5.62875 19.52625 5.4375 20.3125 C4.77180827 23.08967375 4.77180827 23.08967375 6 26 C6.03874921 27.66621616 6.0450286 29.33394172 6 31 C6.7425 30.21625 7.485 29.4325 8.25 28.625 C10.54433318 26.43495469 12.12158858 25.17268614 15 24 C13.63629701 26.99220268 12.05091917 29.29026529 9.875 31.75 C9.06675781 32.67039062 9.06675781 32.67039062 8.2421875 33.609375 C7.62730469 34.29773438 7.62730469 34.29773438 7 35 C6.01 34.67 5.02 34.34 4 34 C2.68 22.78 1.36 11.56 0 0 Z " fill="#12120F" transform="translate(63,107)"/>
<path d="M0 0 C4.39383706 1.59623144 8.28995807 3.78024333 12.3125 6.125 C12.95767578 6.49753906 13.60285156 6.87007812 14.26757812 7.25390625 C15.84675945 8.16632213 17.42361864 9.08275509 19 10 C18.34 10.66 17.68 11.32 17 12 C15.9275 11.319375 14.855 10.63875 13.75 9.9375 C10.99403309 8.26140764 10.99403309 8.26140764 7.875 8.3125 C6.946875 8.6528125 6.946875 8.6528125 6 9 C3.25 8.5625 3.25 8.5625 1 8 C1.20625 7.4225 1.4125 6.845 1.625 6.25 C2.08661261 3.48032433 1.42944945 2.35438733 0 0 Z " fill="#181816" transform="translate(64,54)"/>
<path d="M0 0 C0.33 0.66 0.66 1.32 1 2 C1.66 2.33 2.32 2.66 3 3 C-3.435 4.98 -3.435 4.98 -10 7 C-10 7.99 -10 8.98 -10 10 C-11.32 9.34 -12.64 8.68 -14 8 C-13.67 7.01 -13.34 6.02 -13 5 C-10.8203125 4.05078125 -10.8203125 4.05078125 -8.125 3.3125 C-7.24070312 3.06113281 -6.35640625 2.80976562 -5.4453125 2.55078125 C-3 2 -3 2 0 2 C0 1.34 0 0.68 0 0 Z " fill="#121211" transform="translate(118,100)"/>
<path d="M0 0 C2.25 0.0625 2.25 0.0625 5 1 C6.53517634 3.34791675 7.76503531 5.51430511 9 8 C9.598125 8.928125 10.19625 9.85625 10.8125 10.8125 C11.204375 11.534375 11.59625 12.25625 12 13 C11.67 13.66 11.34 14.32 11 15 C10.45730469 14.16855469 9.91460937 13.33710938 9.35546875 12.48046875 C8.64003906 11.39378906 7.92460938 10.30710937 7.1875 9.1875 C6.47980469 8.10855469 5.77210937 7.02960938 5.04296875 5.91796875 C3.4639955 3.66272397 2.0316883 1.82659673 0 0 Z " fill="#0C0C0C" transform="translate(88,117)"/>
<path d="M0 0 C0.66 0 1.32 0 2 0 C0.63629701 2.99220268 -0.94908083 5.29026529 -3.125 7.75 C-3.93324219 8.67039063 -3.93324219 8.67039063 -4.7578125 9.609375 C-5.16773437 10.06828125 -5.57765625 10.5271875 -6 11 C-6.99 10.67 -7.98 10.34 -9 10 C-9 9.34 -9 8.68 -9 8 C-8.443125 7.79375 -7.88625 7.5875 -7.3125 7.375 C-5.02890674 6.01718779 -4.0008439 4.92057214 -2.375 2.875 C-1.199375 1.451875 -1.199375 1.451875 0 0 Z " fill="#0B0B0B" transform="translate(76,131)"/>
<path d="M0 0 C4.30764815 1.56641751 8.06171464 3.68336156 12 6 C11.34 6.66 10.68 7.32 10 8 C8.32819726 7.05065487 6.66266064 6.09026687 5 5.125 C4.071875 4.59132813 3.14375 4.05765625 2.1875 3.5078125 C1.465625 3.01023438 0.74375 2.51265625 0 2 C0 1.34 0 0.68 0 0 Z " fill="#0E0E0D" transform="translate(71,58)"/>
<path d="M0 0 C0.99 0.33 1.98 0.66 3 1 C1.50902342 4.7952131 -0.75700849 6.61042731 -4 9 C-2.80100302 5.9168649 -1.52299523 2.93720508 0 0 Z " fill="#101010" transform="translate(82,122)"/>
<path d="M0 0 C4.04648443 1.34882814 4.95502599 3.34826069 7 7 C6.67 7.99 6.34 8.98 6 10 C4.99723227 8.52270825 3.99785546 7.04311423 3 5.5625 C2.443125 4.73878906 1.88625 3.91507812 1.3125 3.06640625 C0 1 0 1 0 0 Z " fill="#121212" transform="translate(112,118)"/>
<path d="M0 0 C1.32 0.66 2.64 1.32 4 2 C3.67 2.99 3.34 3.98 3 5 C-0.5625 6.1875 -0.5625 6.1875 -4 7 C-3.67 6.01 -3.34 5.02 -3 4 C-2.01 3.67 -1.02 3.34 0 3 C0 2.01 0 1.02 0 0 Z " fill="#101010" transform="translate(133,93)"/>
<path d="M0 0 C0.99 0.33 1.98 0.66 3 1 C2.67 2.98 2.34 4.96 2 7 C1.01 6.67 0.02 6.34 -1 6 C-1.042721 4.33388095 -1.04063832 2.66617115 -1 1 C-0.67 0.67 -0.34 0.34 0 0 Z " fill="#141414" transform="translate(59,51)"/>
</svg>
